<svg id="Illustration" xmlns="http://www.w3.org/2000/svg" xmlns:xlink="http://www.w3.org/1999/xlink" viewBox="0 0 2187.77 2122.43"><defs><style>.cls-1{fill:url(#linear-gradient);}.cls-11,.cls-2{fill:#91b3fa;}.cls-3{fill:url(#linear-gradient-2);}.cls-4{fill:#bdd0fb;}.cls-5{fill:url(#linear-gradient-3);}.cls-12,.cls-15,.cls-42,.cls-50,.cls-6{fill:#fff;}.cls-6{opacity:0.37;}.cls-7{fill:url(#linear-gradient-4);}.cls-8{fill:url(#linear-gradient-5);}.cls-9{fill:url(#linear-gradient-6);}.cls-10{fill:url(#linear-gradient-7);}.cls-11{opacity:0.67;}.cls-12{opacity:0.78;}.cls-13{fill:url(#linear-gradient-8);}.cls-14{fill:url(#linear-gradient-9);}.cls-15{opacity:0.6;}.cls-16{fill:url(#linear-gradient-10);}.cls-17{fill:url(#linear-gradient-11);}.cls-18{fill:url(#linear-gradient-12);}.cls-19{fill:url(#linear-gradient-13);}.cls-20{fill:url(#linear-gradient-14);}.cls-21{fill:url(#linear-gradient-15);}.cls-22{fill:url(#linear-gradient-16);}.cls-23{fill:url(#linear-gradient-17);}.cls-24{fill:url(#linear-gradient-18);}.cls-25{fill:url(#linear-gradient-19);}.cls-26{fill:url(#linear-gradient-20);}.cls-27{fill:url(#linear-gradient-21);}.cls-28{fill:url(#linear-gradient-22);}.cls-29{fill:url(#linear-gradient-23);}.cls-30{fill:#7d97f4;}.cls-31{fill:url(#linear-gradient-24);}.cls-32{fill:url(#linear-gradient-25);}.cls-33{fill:url(#linear-gradient-26);}.cls-34{fill:url(#linear-gradient-27);}.cls-35{fill:url(#linear-gradient-28);}.cls-36{fill:url(#linear-gradient-29);}.cls-37{fill:url(#linear-gradient-30);}.cls-38{fill:url(#linear-gradient-31);}.cls-39{fill:url(#linear-gradient-32);}.cls-40{fill:url(#linear-gradient-33);}.cls-41{fill:url(#linear-gradient-34);}.cls-43{fill:url(#linear-gradient-35);}.cls-44{fill:url(#linear-gradient-36);}.cls-45{fill:url(#linear-gradient-37);}.cls-46{fill:url(#linear-gradient-38);}.cls-47{fill:url(#linear-gradient-39);}.cls-48{fill:url(#linear-gradient-40);}.cls-49{fill:url(#linear-gradient-41);}.cls-50{opacity:0.7;}.cls-51{fill:url(#linear-gradient-42);}.cls-52{fill:url(#linear-gradient-43);}.cls-53{fill:url(#linear-gradient-44);}.cls-54{fill:url(#linear-gradient-45);}.cls-55{fill:url(#linear-gradient-46);}.cls-56{fill:url(#linear-gradient-47);}.cls-57{fill:url(#linear-gradient-48);}.cls-58{fill:url(#linear-gradient-49);}.cls-59{fill:url(#linear-gradient-50);}.cls-60{fill:url(#linear-gradient-51);}.cls-61{fill:url(#linear-gradient-52);}.cls-62{fill:url(#linear-gradient-53);}.cls-63{fill:url(#linear-gradient-54);}.cls-64{fill:url(#linear-gradient-55);}.cls-65{fill:url(#linear-gradient-56);}.cls-66{fill:url(#linear-gradient-57);}.cls-67{fill:url(#linear-gradient-58);}.cls-68{fill:url(#linear-gradient-59);}.cls-69{fill:url(#linear-gradient-60);}.cls-70{fill:url(#linear-gradient-61);}.cls-71{fill:url(#linear-gradient-62);}.cls-72{fill:url(#linear-gradient-63);}.cls-73{fill:url(#linear-gradient-64);}.cls-74{fill:url(#linear-gradient-65);}.cls-75{fill:url(#linear-gradient-66);}.cls-76{fill:url(#linear-gradient-67);}.cls-77{fill:url(#linear-gradient-68);}.cls-78{fill:url(#linear-gradient-69);}.cls-79{fill:url(#linear-gradient-70);}.cls-80{fill:url(#linear-gradient-71);}.cls-81{fill:url(#linear-gradient-72);}.cls-82{fill:url(#linear-gradient-73);}.cls-83{fill:url(#linear-gradient-74);}.cls-84{fill:url(#linear-gradient-75);}</style><linearGradient id="linear-gradient" x1="909.57" y1="1669.91" x2="1389.29" y2="230.75" gradientUnits="userSpaceOnUse"><stop offset="0" stop-color="#09005d"/><stop offset="1" stop-color="#1a0f91"/></linearGradient><linearGradient id="linear-gradient-2" x1="1172.93" y1="958.4" x2="1073.5" y2="2048.15" xlink:href="#linear-gradient"/><linearGradient id="linear-gradient-3" x1="1376.15" y1="601.76" x2="1486.62" y2="601.76" gradientUnits="userSpaceOnUse"><stop offset="0" stop-color="#dae3fe"/><stop offset="1" stop-color="#e9effd"/></linearGradient><linearGradient id="linear-gradient-4" x1="614.33" y1="-597.22" x2="612.61" y2="-335.85" gradientTransform="matrix(-0.9, -0.43, -0.43, 0.9, 2129.73, 811.09)" xlink:href="#linear-gradient"/><linearGradient id="linear-gradient-5" x1="950.12" y1="179.67" x2="797.66" y2="501.16" gradientTransform="matrix(-0.48, -0.88, -0.88, 0.48, 2374.72, 917)" xlink:href="#linear-gradient"/><linearGradient id="linear-gradient-6" x1="662.09" y1="-596.9" x2="660.37" y2="-335.54" gradientTransform="matrix(-0.9, -0.43, -0.43, 0.9, 2129.73, 811.09)" gradientUnits="userSpaceOnUse"><stop offset="0" stop-color="#4f52ff"/><stop offset="1" stop-color="#4042e2"/></linearGradient><linearGradient id="linear-gradient-7" x1="568.49" y1="-597.51" x2="566.78" y2="-336.16" xlink:href="#linear-gradient-6"/><linearGradient id="linear-gradient-8" x1="609.39" y1="-423.35" x2="806.22" y2="-423.35" xlink:href="#linear-gradient-6"/><linearGradient id="linear-gradient-9" x1="418.06" y1="-423.36" x2="614.89" y2="-423.36" xlink:href="#linear-gradient-6"/><linearGradient id="linear-gradient-10" x1="1533.93" y1="1139.9" x2="1754.71" y2="1139.9" gradientTransform="matrix(1, 0, 0, 1, 0, 0)" xlink:href="#linear-gradient-6"/><linearGradient id="linear-gradient-11" x1="3109.61" y1="1265.65" x2="3205.79" y2="1520.52" gradientTransform="translate(-1327.05)" gradientUnits="userSpaceOnUse"><stop offset="0" stop-color="#febbba"/><stop offset="1" stop-color="#ff928e"/></linearGradient><linearGradient id="linear-gradient-12" x1="2423.85" y1="-203.14" x2="2239.55" y2="260.25" gradientUnits="userSpaceOnUse"><stop offset="0" stop-color="#ff928e"/><stop offset="1" stop-color="#fe7062"/></linearGradient><linearGradient id="linear-gradient-13" x1="4195.3" y1="1906.93" x2="4308.54" y2="1906.93" gradientTransform="matrix(-1, 0, 0, 1, 6184.16, 0)" xlink:href="#linear-gradient"/><linearGradient id="linear-gradient-14" x1="-5710.63" y1="1677.42" x2="-5710.63" y2="1911.8" gradientTransform="matrix(-1, 0, 0, 1, -3778.39, 0)" xlink:href="#linear-gradient-6"/><linearGradient id="linear-gradient-15" x1="3996.39" y1="1907.21" x2="4049.41" y2="1907.21" gradientTransform="matrix(-1, 0, 0, 1, 6184.16, 0)" xlink:href="#linear-gradient"/><linearGradient id="linear-gradient-16" x1="-5959.13" y1="1732.63" x2="-5935.3" y2="1982.9" gradientTransform="matrix(-1, 0, 0, 1, -3778.39, 0)" xlink:href="#linear-gradient-6"/><linearGradient id="linear-gradient-17" x1="4018.81" y1="1870.66" x2="4053.21" y2="1870.66" gradientTransform="matrix(-1, 0, 0, 1, 6184.16, 0)" xlink:href="#linear-gradient-11"/><linearGradient id="linear-gradient-18" x1="4201.06" y1="1868.41" x2="4229.73" y2="1868.41" gradientTransform="matrix(-1, 0, 0, 1, 6184.16, 0)" xlink:href="#linear-gradient-11"/><linearGradient id="linear-gradient-19" x1="2076.45" y1="1522.22" x2="2315.28" y2="755.61" gradientTransform="matrix(1, 0, 0, 1, 0, 0)" xlink:href="#linear-gradient-6"/><linearGradient id="linear-gradient-20" x1="1976.48" y1="1512.54" x2="2014.65" y2="1299.28" gradientTransform="matrix(1, 0, 0, 1, 0, 0)" xlink:href="#linear-gradient-6"/><linearGradient id="linear-gradient-21" x1="1785.63" y1="1272.68" x2="2017.32" y2="1285.84" xlink:href="#linear-gradient-12"/><linearGradient id="linear-gradient-22" x1="4286.67" y1="1155.42" x2="4300.79" y2="1068.31" gradientTransform="matrix(-1, 0, 0, 1, 6184.16, 0)" xlink:href="#linear-gradient-11"/><linearGradient id="linear-gradient-23" x1="1777.69" y1="731.03" x2="1434" y2="1256.68" gradientTransform="translate(318.85 -507.7) rotate(15.58)" xlink:href="#linear-gradient"/><linearGradient id="linear-gradient-24" x1="1802.72" y1="1156.71" x2="2131.66" y2="702.78" xlink:href="#linear-gradient"/><linearGradient id="linear-gradient-25" x1="845.39" y1="-718.39" x2="949.05" y2="-443.7" gradientTransform="translate(676.79 1221.43) rotate(41.18)" xlink:href="#linear-gradient-11"/><linearGradient id="linear-gradient-26" x1="2033.18" y1="1202.75" x2="1824.81" y2="1434.71" gradientTransform="matrix(1, 0, 0, 1, 0, 0)" xlink:href="#linear-gradient-11"/><linearGradient id="linear-gradient-27" x1="1791.46" y1="1170" x2="2023.16" y2="1183.16" xlink:href="#linear-gradient-12"/><linearGradient id="linear-gradient-28" x1="2048.21" y1="1216.26" x2="1839.84" y2="1448.22" gradientTransform="matrix(1, 0, 0, 1, 0, 0)" xlink:href="#linear-gradient-11"/><linearGradient id="linear-gradient-29" x1="-8092.37" y1="-3789.97" x2="-8119.79" y2="-3880.4" gradientTransform="matrix(-0.75, -0.67, -0.67, 0.75, -6722.83, -1519.91)" xlink:href="#linear-gradient-11"/><linearGradient id="linear-gradient-30" x1="-8117.11" y1="-3947.53" x2="-8094.17" y2="-3816.72" gradientTransform="matrix(-0.75, -0.67, -0.67, 0.75, -6722.83, -1519.91)" xlink:href="#linear-gradient"/><linearGradient id="linear-gradient-31" x1="-8120.4" y1="-3790.4" x2="-8145.06" y2="-3871.75" gradientTransform="matrix(-0.75, -0.67, -0.67, 0.75, -6722.83, -1519.91)" xlink:href="#linear-gradient-11"/><linearGradient id="linear-gradient-32" x1="1749.86" y1="1761.46" x2="1785.41" y2="1498.17" gradientTransform="matrix(1, 0, 0, 1, 0, 0)" xlink:href="#linear-gradient-6"/><linearGradient id="linear-gradient-33" x1="1790.91" y1="1376.53" x2="1775.12" y2="1479.22" gradientTransform="matrix(1, 0, 0, 1, 0, 0)" xlink:href="#linear-gradient-6"/><linearGradient id="linear-gradient-34" x1="1752.36" y1="1598.44" x2="1735.79" y2="1676.55" xlink:href="#linear-gradient"/><linearGradient id="linear-gradient-35" x1="380.44" y1="383.2" x2="387.73" y2="383.2" gradientTransform="matrix(1, 0, 0, 1, 0, 0)" xlink:href="#linear-gradient-11"/><linearGradient id="linear-gradient-36" x1="381.11" y1="178.64" x2="924.82" y2="178.64" gradientTransform="matrix(1, 0, 0, 1, 0, 0)" xlink:href="#linear-gradient-11"/><linearGradient id="linear-gradient-37" x1="951.15" y1="122.32" x2="966.62" y2="122.32" gradientTransform="matrix(1, 0, 0, 1, 0, 0)" xlink:href="#linear-gradient-11"/><linearGradient id="linear-gradient-38" x1="1054.02" y1="366.05" x2="1060.66" y2="366.05" gradientTransform="matrix(1, 0, 0, 1, 0, 0)" xlink:href="#linear-gradient-11"/><linearGradient id="linear-gradient-39" x1="503.04" y1="555.94" x2="1056.25" y2="555.94" gradientTransform="matrix(1, 0, 0, 1, 0, 0)" xlink:href="#linear-gradient-11"/><linearGradient id="linear-gradient-40" x1="463.59" y1="587.14" x2="478.58" y2="587.14" gradientTransform="matrix(1, 0, 0, 1, 0, 0)" xlink:href="#linear-gradient-11"/><linearGradient id="linear-gradient-41" x1="464.48" y1="357.82" x2="977.72" y2="357.82" xlink:href="#linear-gradient-12"/><linearGradient id="linear-gradient-42" x1="1048.26" y1="447.24" x2="1062.78" y2="447.24" gradientTransform="matrix(1, 0, 0, 1, 0, 0)" xlink:href="#linear-gradient-11"/><linearGradient id="linear-gradient-43" x1="1091.27" y1="540.01" x2="1257.89" y2="540.01" gradientTransform="matrix(1, 0, 0, 1, 0, 0)" xlink:href="#linear-gradient-11"/><linearGradient id="linear-gradient-44" x1="1228.96" y1="675.11" x2="1239.05" y2="675.11" gradientTransform="matrix(1, 0, 0, 1, 0, 0)" xlink:href="#linear-gradient-11"/><linearGradient id="linear-gradient-45" x1="1125.17" y1="747.88" x2="1139.91" y2="747.88" gradientTransform="matrix(1, 0, 0, 1, 0, 0)" xlink:href="#linear-gradient-11"/><linearGradient id="linear-gradient-46" x1="942.56" y1="648.1" x2="1096.93" y2="648.1" gradientTransform="matrix(1, 0, 0, 1, 0, 0)" xlink:href="#linear-gradient-11"/><linearGradient id="linear-gradient-47" x1="965.37" y1="510.66" x2="975.84" y2="510.66" gradientTransform="matrix(1, 0, 0, 1, 0, 0)" xlink:href="#linear-gradient-11"/><linearGradient id="linear-gradient-48" x1="981.49" y1="595.99" x2="1221.76" y2="595.99" xlink:href="#linear-gradient-12"/><linearGradient id="linear-gradient-49" x1="-3055.99" y1="659.08" x2="-2939.79" y2="967" gradientTransform="matrix(-1, 0, 0, 1, -2451.34, 0)" xlink:href="#linear-gradient-11"/><linearGradient id="linear-gradient-50" x1="468.11" y1="274.46" x2="507.6" y2="543.01" gradientTransform="matrix(1, 0, 0, 1, 0, 0)" xlink:href="#linear-gradient-6"/><linearGradient id="linear-gradient-51" x1="10337.85" y1="1270.72" x2="10453.21" y2="1270.72" gradientTransform="translate(-9962.55)" xlink:href="#linear-gradient"/><linearGradient id="linear-gradient-52" x1="432.98" y1="1036.89" x2="432.98" y2="1275.68" gradientTransform="matrix(1, 0, 0, 1, 0, 0)" xlink:href="#linear-gradient-6"/><linearGradient id="linear-gradient-53" x1="10135.2" y1="1271.01" x2="10189.22" y2="1271.01" gradientTransform="translate(-9962.55)" xlink:href="#linear-gradient"/><linearGradient id="linear-gradient-54" x1="179.81" y1="1093.14" x2="204.09" y2="1348.12" gradientTransform="matrix(1, 0, 0, 1, 0, 0)" xlink:href="#linear-gradient-6"/><linearGradient id="linear-gradient-55" x1="10158.05" y1="1233.77" x2="10193.09" y2="1233.77" gradientTransform="translate(-9962.55)" xlink:href="#linear-gradient-11"/><linearGradient id="linear-gradient-56" x1="10343.72" y1="1231.47" x2="10372.93" y2="1231.47" gradientTransform="translate(-9962.55)" xlink:href="#linear-gradient-11"/><linearGradient id="linear-gradient-57" x1="517.24" y1="517.32" x2="297.97" y2="1222.54" gradientTransform="matrix(1, 0, 0, 1, 0, 0)" xlink:href="#linear-gradient-6"/><linearGradient id="linear-gradient-58" x1="10416.36" y1="782.37" x2="10296.8" y2="936.95" gradientTransform="translate(-9962.55)" xlink:href="#linear-gradient"/><linearGradient id="linear-gradient-59" x1="681.76" y1="460.34" x2="328.95" y2="697.3" gradientTransform="matrix(1, 0, 0, 1, 0, 0)" xlink:href="#linear-gradient-6"/><linearGradient id="linear-gradient-60" x1="424.66" y1="490.64" x2="553.67" y2="343.2" gradientTransform="matrix(1, 0, 0, 1, 0, 0)" xlink:href="#linear-gradient-11"/><linearGradient id="linear-gradient-61" x1="10403.35" y1="417.89" x2="10310.26" y2="489.12" gradientTransform="translate(-9962.55)" xlink:href="#linear-gradient-11"/><linearGradient id="linear-gradient-62" x1="10412.01" y1="304.99" x2="10496.31" y2="413.52" gradientTransform="translate(-9962.55)" xlink:href="#linear-gradient"/><linearGradient id="linear-gradient-63" x1="10465.87" y1="346.13" x2="10372.78" y2="417.36" gradientTransform="translate(-9962.55)" xlink:href="#linear-gradient-11"/><linearGradient id="linear-gradient-64" x1="40.43" y1="769.76" x2="800.26" y2="769.76" xlink:href="#linear-gradient-3"/><linearGradient id="linear-gradient-65" x1="744.65" y1="639.61" x2="1060.57" y2="639.61" xlink:href="#linear-gradient-3"/><linearGradient id="linear-gradient-66" x1="-1322.97" y1="12024.34" x2="-1216.34" y2="11262.15" gradientTransform="matrix(-0.25, -0.97, -0.97, 0.25, -4687.47, 3313.87)" xlink:href="#linear-gradient"/><linearGradient id="linear-gradient-67" x1="-716.3" y1="9407.67" x2="-609.67" y2="8645.48" gradientTransform="matrix(-0.25, -0.97, -1.2, 0.3, -4634.77, 3300.61)" xlink:href="#linear-gradient"/><linearGradient id="linear-gradient-68" x1="-2723.35" y1="672.07" x2="-2592.62" y2="860.89" gradientTransform="matrix(-1, 0, 0, 1, -2451.34, 0)" xlink:href="#linear-gradient-11"/><linearGradient id="linear-gradient-69" x1="616.63" y1="363.37" x2="263.82" y2="600.34" gradientTransform="matrix(1, 0, 0, 1, 0, 0)" xlink:href="#linear-gradient-6"/><linearGradient id="linear-gradient-70" x1="-3137.71" y1="689.92" x2="-3021.52" y2="997.84" gradientTransform="matrix(-1, 0, 0, 1, -2451.34, 0)" xlink:href="#linear-gradient-11"/><linearGradient id="linear-gradient-71" x1="-2773.41" y1="706.25" x2="-2641.18" y2="897.25" gradientTransform="matrix(-1, 0, 0, 1, -2451.34, 0)" xlink:href="#linear-gradient-11"/><linearGradient id="linear-gradient-72" x1="1286.22" y1="2078.35" x2="1399.43" y2="1604.43" xlink:href="#linear-gradient-12"/><linearGradient id="linear-gradient-73" x1="1419.69" y1="2034.95" x2="1482.88" y2="1542.6" xlink:href="#linear-gradient-12"/><linearGradient id="linear-gradient-74" x1="1346.59" y1="1642.35" x2="1309.73" y2="1908.28" gradientUnits="userSpaceOnUse"><stop offset="0" stop-color="#e1473d"/><stop offset="1" stop-color="#e9605a"/></linearGradient><linearGradient id="linear-gradient-75" x1="2196.72" y1="-293.48" x2="2012.42" y2="169.91" xlink:href="#linear-gradient-12"/></defs><path class="cls-1" d="M2089.29,1739.77c0,21.23-16,38.6-35.49,38.6H134.91c-19.51,0-35.48-17.37-35.48-38.6l-16-1200.85c0-21.23,23-62.68,65.07-59.56l1875.35-52.85c24.49-.69,48.17,9.58,65.51,28.4s26.83,44.56,26.25,71.2Z"/><path class="cls-2" d="M2054.25,1702.73c0,20.11-15.1,36.56-33.57,36.56H181.19c-18.46,0-33.57-16.45-33.57-36.56L132.55,612.6c1.78-65.61,54.59-89.18,86.61-87.79L2016.51,472.3c17.2-.51,33.84,6.71,46,19.95A71.65,71.65,0,0,1,2081,542.33Z"/><path class="cls-3" d="M13.71,1772.55H2174a7.5,7.5,0,0,1,7.5,7.5v90.5a7.51,7.51,0,0,1-7.51,7.51H13.71a7.51,7.51,0,0,1-7.51-7.51v-90.5A7.51,7.51,0,0,1,13.71,1772.55Z"/><path class="cls-4" d="M206.3,589.45l1280.17-30c20.82-.49,38.06,11.9,38.06,27.35V601c0,14.84-16,27-36,27.35L209,652.41c-20,.38-36.79-11.16-37.78-26l-.55-8.26C169.6,602.87,185.68,589.94,206.3,589.45Z"/><path class="cls-5" d="M1486.3,593.38C1489,571.7,1474,552,1452.67,549.29s-40.76,12.74-43.48,34.43a39.81,39.81,0,0,0,8.66,30.24l-39.64,30.49a5.52,5.52,0,0,0-.56,8.08l.36.39a5.13,5.13,0,0,0,7.27.19l36-35.46a38.18,38.18,0,0,0,21.52,10.16C1464.12,630.48,1483.58,615.07,1486.3,593.38Zm-42.16,23.93c-15.6-1.95-26.63-16.42-24.64-32.3s16.25-27.17,31.85-25.22,26.63,16.42,24.64,32.3S1459.74,619.27,1444.14,617.31Z"/><path class="cls-4" d="M182.19,1144.08l21.35,516.49c.72,17.41,25,31.23,54.51,31l626.74-5.1c29.47-.23,53.12-14.44,53.05-31.84l-2.18-521.33c-.08-17.84-25-32.15-55.19-31.69l-645.91,10C204.9,1112,181.47,1126.56,182.19,1144.08Z"/><path class="cls-4" d="M1058.35,687l392.9-4.78c40.21-.48,73.56,12.57,73.89,28.95l6.67,324.67c.34,16.36-32.42,29.64-72.63,29.44l-409-2c-23-.11-41.67-7.62-42.22-17L988.76,716.88C987.83,700.83,1018.91,687.48,1058.35,687Z"/><path class="cls-4" d="M280.81,679.57l559.1-4.92c57.23-.51,104.68,13,105.16,29.82l9.49,334.62c.48,16.86-46.14,30.54-103.36,30.34l-582.05-2.11c-32.75-.12-59.3-7.85-60.08-17.5L181.78,710.36C180.45,693.82,224.68,680.06,280.81,679.57Z"/><path class="cls-4" d="M1057.42,1105.09l392.89-7.58c40.22-.78,73.56,20,73.9,45.93l6.67,515.26c.34,26-32.43,47-72.63,46.72l-409-3.24c-23-.18-41.67-12.09-42.21-27l-19.18-522.72C986.89,1127,1018,1105.85,1057.42,1105.09Z"/><path class="cls-4" d="M1634.21,545,1940.73,540c31.37-.51,57.39,13,57.65,29.89l5.2,335.36c.27,16.9-25.3,30.62-56.66,30.41l-319.11-2.11c-18-.12-32.51-7.87-32.93-17.54l-15-340.22C1579.19,559.25,1603.44,545.47,1634.21,545Z"/><path class="cls-4" d="M1641.74,980.73l306.52-3.87c31.37-.4,57.39,10.19,57.65,23.45l5.2,263.14c.27,13.26-25.29,24-56.66,23.86l-319.11-1.66c-17.95-.09-32.51-6.17-32.93-13.76l-15-266.94C1586.72,991.94,1611,981.12,1641.74,980.73Z"/><path class="cls-6" d="M1656.36,1346.09l306.52-4.46c31.37-.46,57.39,11.73,57.65,27l5.2,302.91c.27,15.26-25.29,27.65-56.66,27.46L1650,1697.1c-18-.11-32.51-7.11-32.93-15.85l-15-307.29C1601.34,1359,1625.59,1346.54,1656.36,1346.09Z"/><path class="cls-7" d="M1696,166.41c.37-.83.74-1.67,1.12-2.49,18.85-39.75,50-48,77.52-34.95s40.86,42.37,22,82.13c-.16.34-.34.68-.51,1C1777.64,198.25,1742.07,175.8,1696,166.41Z"/><path class="cls-8" d="M1796.17,212.12c-19.11,39.33-62.5,73.73-89.75,60.82-26.92-12.76-28.07-66.95-10.4-106.53C1742.07,175.8,1777.64,198.25,1796.17,212.12Z"/><path class="cls-9" d="M1748.17,145.21a357,357,0,0,0,24.1-52.47,160.94,160.94,0,0,0,7.46-28.13,72.1,72.1,0,0,0,.88-14.8,32.24,32.24,0,0,0-4-14.8,22.27,22.27,0,0,0-12.28-9.87,38.06,38.06,0,0,0-15.25-1.69c-5.07.36-10.58,1.86-14.81,5.7s-6.18,9.56-6.49,14.78a37.9,37.9,0,0,0,2.5,15.29,36.33,36.33,0,0,0,8.13,13.34c2,1.88,4.35,3.87,8,4.4a9,9,0,0,0,5.42-1.09,12.34,12.34,0,0,0,3.7-3.41c3.22-5.09,4-10.19,4.72-15.17a3.43,3.43,0,0,0-6.78-1s0,.07,0,.1l0,.17c-.53,4.44-1.43,9.08-3.34,12.17-1.08,1.43-1.88,1.91-3,1.83s-2.87-1.15-4.3-2.52A30.56,30.56,0,0,1,1736,57.07a31.83,31.83,0,0,1-2.36-12.84c.2-4.23,1.48-8.34,4.45-11s7.07-4.09,11.46-4.46c8.9-.91,18.53,1.21,22.88,8.7A27.76,27.76,0,0,1,1776,50.12a68,68,0,0,1-.59,13.86,157.84,157.84,0,0,1-6.8,27.5,354,354,0,0,1-22.95,52.32l0,0a1.44,1.44,0,0,0,2.53,1.37Z"/><path class="cls-10" d="M1778.65,159.44a352.73,352.73,0,0,1,26-50.9,157.29,157.29,0,0,1,17-22.66,68.27,68.27,0,0,1,10.35-9.24,27.61,27.61,0,0,1,12-5.22c8.55-1.38,16.29,4.73,21.22,12.2,2.49,3.64,4.08,7.75,3.79,11.69s-2.52,7.56-5.66,10.4a32.23,32.23,0,0,1-11.43,6.3,30.49,30.49,0,0,1-12.79,1.63c-2-.24-3.87-.88-4.68-1.74s-.88-1.7-.46-3.44c1.18-3.44,4.21-7.07,7.31-10.29l.11-.11a3.43,3.43,0,0,0-4.94-4.76l-.08.09c-3.37,3.74-6.85,7.54-8.75,13.25a12.62,12.62,0,0,0-.3,5,9,9,0,0,0,2.6,4.88c2.71,2.49,5.74,3,8.46,3.41a36.73,36.73,0,0,0,15.47-2.16,38.11,38.11,0,0,0,13.42-7.75c3.85-3.55,7.16-8.62,7.33-14.38s-2-10.92-5-15.08a38.18,38.18,0,0,0-11-10.73,22.2,22.2,0,0,0-15.4-3.25,32.23,32.23,0,0,0-14,6.26,72.45,72.45,0,0,0-10.9,10,161.93,161.93,0,0,0-17,23.58A357.76,357.76,0,0,0,1776,158.39a1.44,1.44,0,0,0,2.67,1.09Z"/><path class="cls-11" d="M1755.34,178.23s-16.12,145.39,40.78,153.39S1848.6,256.2,1755.34,178.23Z"/><path class="cls-11" d="M1755.34,178.23S1653,282.76,1610.79,243.78,1635.93,155.41,1755.34,178.23Z"/><path class="cls-11" d="M1746.66,183.46S1609.17,233.41,1588,180,1648.89,111.22,1746.66,183.46Z"/><path class="cls-11" d="M1760.9,190.21s48.39,138,103.14,120.64S1878.72,220.15,1760.9,190.21Z"/><path class="cls-12" d="M1795.33,322.46a3.36,3.36,0,0,0,1.46.33c13,0,21.72-4.05,26-12.14,12.71-23.76-20.66-73.94-22.09-76.07a3.43,3.43,0,1,0-5.69,3.82c9.08,13.53,30.68,52.3,21.74,69-3,5.67-9.76,8.54-20,8.51a3.43,3.43,0,0,0-1.47,6.53Z"/><path class="cls-13" d="M1752.63,184s-48.55-75.29-77.06-88.79c-30.72-14.56-77.57-1-100.58,7.39a4.94,4.94,0,0,0,.36,9.39C1627.9,127.37,1688.7,153.6,1752.63,184Z"/><path class="cls-14" d="M1747.66,181.59s89-10.09,117.51,3.43c30.72,14.57,49.88,59.43,58,82.54a4.94,4.94,0,0,1-7.49,5.66C1870.43,242.31,1811.62,211.86,1747.66,181.59Z"/><path class="cls-15" d="M1904.74,251.66a3.42,3.42,0,0,0,4.6-4.48c-1.23-2.79-30.73-68.33-79.77-63.88a3.43,3.43,0,0,0,.62,6.83c44.19-4,72.6,59.18,72.88,59.82A3.43,3.43,0,0,0,1904.74,251.66Z"/><path class="cls-16" d="M1547.93,1731l-14-893c-.16-9.8,9.29-17.81,21-17.81h0c18.94,0,34.29-12.85,34.29-28.7V573.35c0-13.89,13.75-25,30.33-24.55l75.53,2.09c18.59.52,33.45,13.13,33.8,28.69L1754.71,1731Z"/><path class="cls-17" d="M1757.41,1281.74l.31,9.78c30.06,41.84,57.39,31.16,76.22,18.61-11.33-28.18-13.34-31.3-22.39-41.09C1777.57,1293.75,1757.41,1281.74,1757.41,1281.74Z"/><path class="cls-18" d="M1894.37,1235.83l-52.89-82.69c-3.47,46.64-11.74,90.32-29.93,115.9,9,9.79,11.06,12.91,22.39,41.09C1880.93,1278.8,1894.37,1235.83,1894.37,1235.83Z"/><path class="cls-19" d="M1946.29,1929.76c-26.37,1.21-51.89.45-68.93-.43,15.51-11,51.26-35.07,81.17-44.63l20.53-1.23s7,10.58,9.44,34.79C1985.1,1922.51,1975.15,1928.43,1946.29,1929.76Z"/><path class="cls-20" d="M1877.14,1929.48l.22-.15c17,.88,42.56,1.64,68.93.43,28.86-1.33,38.81-7.25,42.21-11.5.12,1.12.23,2.23.33,3.4A9.62,9.62,0,0,1,1980,1932c-21.59,1.63-75.13,5.33-101,4A3.61,3.61,0,0,1,1877.14,1929.48Z"/><path class="cls-21" d="M2134.88,1922.7c1.93-12.38,5-30.27,7.42-34.85,3.75-7.18,16.6,0,16.6,0s9,4.21,13.17,11.22c2.65,4.47,10,17.18,14.92,25.81a5.82,5.82,0,0,1,.78,3.08l-51.45,1.8A10.33,10.33,0,0,1,2134.88,1922.7Z"/><path class="cls-22" d="M2187.77,1928a5.85,5.85,0,0,1-5.7,5.69l-36.65,1a10.36,10.36,0,0,1-9.1-4.9Z"/><path class="cls-23" d="M2131,1846.71c.44,1.48,7.09,33.71,10,47.86a8.07,8.07,0,0,0,8.31,6.45c2.18-.11,4.71-.31,7.37-.65a9.74,9.74,0,0,0,8.48-9.29c.47-12.39.7-36.18-3.85-45.4C2155,1833,2131,1846.71,2131,1846.71Z"/><path class="cls-24" d="M1983.1,1855.94c-2.85-.09,1.14,14.72-3.18,29.28-1,3.28-3.43,5.86-6.85,5.9-2.22,0-4.85,0-7.52-.23a8.26,8.26,0,0,1-7.61-7.45l-3.51-37.76Z"/><path class="cls-25" d="M1903.35,1454.53c1.27,6.2,46.19,268.2,48.91,403.77a4.63,4.63,0,0,0,4,4.5c5.71.79,16.81,1.81,27.58-.18a3.26,3.26,0,0,0,2.68-3c1.57-25.26,14.19-238.87-1.27-339.43,0,0,127.72,268.8,147.08,342.92a3.9,3.9,0,0,0,4,2.92c5.47-.29,16.84-1.27,25.87-4.6a6.75,6.75,0,0,0,4.27-7.94c-10.82-44.36-86.62-350-138.09-417.3Z"/><path class="cls-26" d="M1985.22,1521.88a1.68,1.68,0,0,0,1.2-2.85l-17.1-17.49a1.68,1.68,0,1,0-2.4,2.35l17.1,17.48A1.68,1.68,0,0,0,1985.22,1521.88Z"/><path class="cls-27" d="M1830.34,1126.51c32.81-8.59,93.33-22.19,141.49-19.18,15.74,1,18.72,15.8,19.34,26.87,7.28,128.3,18.44,235.76,37.17,302-42.09,16.66-83.82,24.38-125,18.33q-46.26-99.09-80.85-228.94s-13.52-69.08-.39-92.1C1824.15,1129.9,1826.85,1127.43,1830.34,1126.51Z"/><path class="cls-28" d="M1909.25,1036.64s8.28,49.42,10.75,72.28a9,9,0,0,1-4.86,8.93c-9.05,4.66-28.38,12.17-49.44,5.28A8.35,8.35,0,0,1,1860,1115l1.45-66Z"/><path class="cls-29" d="M1710.05,776.07a2.45,2.45,0,0,0,.93-3.33l-3.36-6-.26.14-19.79-32.1a2.45,2.45,0,0,0-3.36-.8l-3.75,2.31a2.45,2.45,0,0,0-.79,3.36l18.27,29.64a2.44,2.44,0,0,1-.88,3.4l-143.59,81a2.46,2.46,0,0,0-.93,3.33l3.37,6,0,0,46.66,82.74a2.44,2.44,0,0,0,3.33.93l3.83-2.16a2.44,2.44,0,0,0,.93-3.33l-45.46-80.61a2.44,2.44,0,0,1,.93-3.33Z"/><rect class="cls-30" x="1350.88" y="743.89" width="341.65" height="77.7" transform="translate(-188.25 848.4) rotate(-29.42)"/><path class="cls-31" d="M1911,1519.64l-22,11.14a1.17,1.17,0,0,1-1.57-.51L1588.82,940.34a1.18,1.18,0,0,1,.52-1.58l22-11.14a1.17,1.17,0,0,1,1.57.52l298.64,589.93A1.17,1.17,0,0,1,1911,1519.64Z"/><ellipse class="cls-30" cx="1372.77" cy="866.41" rx="14.52" ry="39.14" transform="translate(-248.56 786.03) rotate(-29.42)"/><ellipse class="cls-30" cx="1668.41" cy="700.01" rx="14.52" ry="39.14" transform="matrix(0.87, -0.49, 0.49, 0.87, -128.7, 909.79)"/><path class="cls-32" d="M1752.6,1283.25a12.61,12.61,0,0,1-1.49-10.67c2.16-7,6.68-17.27,14.23-15,11.25,3.39,12.75,31.18,12.75,31.18l-3,17.83,3.75,8.9C1771.43,1311.9,1762.29,1299.05,1752.6,1283.25Z"/><path class="cls-33" d="M2013,1346c4.6-6.45,9.2-13.51,13.75-21.3,45-77.07-37.53-195.09-37.53-195.09L1964,1204.51c37.19,41.47,21.57,81.48,8.92,114.68-16.56,43.47-88.19,80.32-88.19,80.32l13.64,16.84S1972,1403.39,2013,1346Z"/><path class="cls-34" d="M2041.23,1247.31c-.93-59.84-48.46-123.4-57.14-134.59a1.33,1.33,0,0,0-2.26.28L1964,1204.51c7.57,17.68,6,28.81,13.59,44.74,20.43-2.87,39.41-3,59.57,1.36A3.33,3.33,0,0,0,2041.23,1247.31Z"/><path class="cls-35" d="M1884.74,1399.51c-4.19-2.12-37,2.66-32,7.17,8.81,7.9,9.2,13.89-.07,21.29-4.57,3.65-15.09,9.2-18,.67-.8-2.4-.91-5.51-3.19-6.6-1.69-.81-6.46,5-6.74,6.82-1.6,10.38,6.69,19,15.83,22.46a67.12,67.12,0,0,0,13.84,3.08c2.61.39,9.11,1.36,9.69,1.11a5.26,5.26,0,0,0,1.58-1.54c2.13-2.37,13.57-12,16.06-15.22,1.34-1.74,18.48-23.34,17.61-25.41C1899.44,1413.33,1888.28,1401.3,1884.74,1399.51Z"/><path class="cls-36" d="M1851.89,984s-26.49,49.86-23.1,70,36.23,18.7,64.9,2.34l20-53.84Z"/><path class="cls-37" d="M1892.42,1029.89a2.06,2.06,0,0,1-.89-3c2.12-3.24,6.1-9.86,7.37-15.65,0,0,4.76-3.05-12.13-7.09s-42-10.31-47.35-24.68c-5.16-14,8.4-49.25,30-21.17a2,2,0,0,0,3.25,0c3.55-4.61,12.87-14.19,25.81-8.39,12.11,5.44,13.48,14.31,13.31,18.79a2,2,0,0,0,2.42,2.09c6.13-1.17,20.82-2.17,27.68,12.9,5.65,12.42,2,19.44-1.37,22.88a2,2,0,0,0,.88,3.4c4,1.24,9.22,4.65,8.7,14.08-.72,13-15.29,11.88-19.44,11.29a2.05,2.05,0,0,0-1.83.64c-3.56,3.94-19.58,20.66-36.93,22.67a2.08,2.08,0,0,1-2.18-2.74l7.51-21.82a2.06,2.06,0,0,0-1.11-2.56Z"/><path class="cls-38" d="M1889.4,1033s18.87-12.94,20.24-2-17,15.79-26.08,11.73Z"/><path class="cls-4" d="M1832.75,1931.49c-57.93,19.35-114.22,19.37-168.5,1.69a33.33,33.33,0,0,1-23-31.69V1635.64c66.7,14.68,136.62,15.43,210.26,0v270A27.32,27.32,0,0,1,1832.75,1931.49Z"/><ellipse class="cls-30" cx="1746.37" cy="1633.52" rx="105.13" ry="21.13"/><path class="cls-39" d="M1851.5,1840.34q-105.12,36.57-210.26,0v-106c70.72,17.44,140.84,18.32,210.26,0Z"/><path class="cls-40" d="M1652.52,1659.81c2.25,8.41,11.85,14.09,20.32,12,5.93-1.46,11-6.11,17.11-6.21,6.93-.12,12.47,5.6,16.51,11.24a111.4,111.4,0,0,1,16.45,33.84c1.17,4,2.21,8.31,5,11.41,6.06,6.63,17.52,4.51,24.25-1.44s10.39-14.53,15.4-22,12.68-14.42,21.65-13.88c3,.19,5.91,1.21,8.92,1.34a15.44,15.44,0,0,0,15-10.84c.57-2,.74-4.07,1.76-5.84,3-5.32,11.07-5.83,15.22-10.14,2.64-2.73,3.52-6.71,6.59-9.39,1.16-1,9.14-4.31,9.3-4.82,1.4-4.28-3-8.16-7.17-10-24.18-10.76-51.81,0-78,3.64-25.74,3.6-50.38-2.27-75.88-2C1671,1636.82,1647.27,1640.21,1652.52,1659.81Z"/><ellipse class="cls-30" cx="1747.59" cy="1634.12" rx="105.13" ry="21.13"/><ellipse class="cls-41" cx="1744.79" cy="1634.12" rx="86.55" ry="12.78"/><path class="cls-30" d="M601.14,1910.73H32.81A32.82,32.82,0,0,1,0,1877.91V1329.16a32.81,32.81,0,0,1,32.73-32.81l572.87-1.54a32.81,32.81,0,0,1,32.9,33L634,1878.09A32.82,32.82,0,0,1,601.14,1910.73Z"/><path class="cls-4" d="M573.29,1336.81l-508.17,3.13A33.29,33.29,0,0,0,32,1373.39l3.54,461.53a33.31,33.31,0,0,0,32.69,33.14l493.76,9a33.29,33.29,0,0,0,33.9-32.82l10.87-473.67A33.29,33.29,0,0,0,573.29,1336.81Z"/><rect class="cls-15" x="141.16" y="1369.65" width="411.47" height="23.43" rx="9.96"/><path class="cls-15" d="M509,1423.68h0a10,10,0,0,1-9.77,9.42l-342.43,6.24a10,10,0,0,1-10.14-10v-.81a10,10,0,0,1,9.8-10l342.43-5.43A10,10,0,0,1,509,1423.68Z"/><path class="cls-42" d="M543.9,1851h-.34L80.4,1845.4a28.38,28.38,0,0,1-28-28.91l11.92-325.92A28.13,28.13,0,0,1,73,1470.75a28.46,28.46,0,0,1,20.23-7.93l462.35,9a28.42,28.42,0,0,1,27.82,28.88v.08l-11.11,322.39A28.43,28.43,0,0,1,543.9,1851ZM92.65,1472.26a18.93,18.93,0,0,0-18.92,18.58L61.81,1816.75A18.93,18.93,0,0,0,80.52,1836l463.15,5.56h.23a19,19,0,0,0,18.93-18.6l11.11-322.43a19,19,0,0,0-18.57-19.23l-462.34-9Zm486,28.36h0Z"/><path class="cls-42" d="M572.66,1535.13H68.25a4.72,4.72,0,1,1,0-9.44H572.66a4.72,4.72,0,1,1,0,9.44Z"/><path class="cls-43" d="M386.66,392a3.16,3.16,0,0,1-1.86.81,3.22,3.22,0,0,1-3.48-2.92c-.37-4.29-.67-8.63-.87-12.92a3.2,3.2,0,1,1,6.4-.31c.21,4.2.5,8.47.86,12.67A3.22,3.22,0,0,1,386.66,392Z"/><path class="cls-44" d="M923.76,92.33a3.21,3.21,0,0,1-4.07.19c-7-5.18-14.2-10.14-21.54-14.76a3.21,3.21,0,1,1,3.41-5.43c7.49,4.7,14.87,9.77,22,15a3.21,3.21,0,0,1,.65,4.49A3.11,3.11,0,0,1,923.76,92.33ZM864.36,57a3.2,3.2,0,0,1-3.5.53c-7.85-3.63-16-7-24.12-10a3.21,3.21,0,0,1,2.23-6c8.31,3.08,16.59,6.52,24.59,10.22A3.22,3.22,0,0,1,865.12,56,3.29,3.29,0,0,1,864.36,57ZM799,34.54a3.2,3.2,0,0,1-2.88.74c-8.46-2-17.09-3.64-25.64-5a3.21,3.21,0,1,1,1-6.34c8.72,1.33,17.51,3,26.13,5.05A3.2,3.2,0,0,1,800,32.89,3.15,3.15,0,0,1,799,34.54ZM386.46,336.37a3.21,3.21,0,0,1-5.34-2.64c.7-8.79,1.76-17.69,3.15-26.43a3.21,3.21,0,1,1,6.33,1c-1.36,8.58-2.4,17.3-3.09,25.93A3.21,3.21,0,0,1,386.46,336.37Zm344-310.61a3.16,3.16,0,0,1-2.23.83c-8.66-.21-17.44-.08-26.09.39a3.2,3.2,0,1,1-.35-6.4c8.82-.49,17.77-.62,26.6-.4a3.2,3.2,0,0,1,2.07,5.58ZM399,268.39a3.21,3.21,0,0,1-5.23-3.28c2.47-8.51,5.31-17,8.42-25.25a3.21,3.21,0,1,1,6,2.26c-3.05,8.09-5.83,16.43-8.27,24.78A3.22,3.22,0,0,1,399,268.39ZM661.58,31.23A3.19,3.19,0,0,1,660,32c-8.5,1.57-17.07,3.49-25.47,5.74a3.21,3.21,0,1,1-1.65-6.2c8.56-2.29,17.29-4.25,26-5.85a3.21,3.21,0,0,1,2.72,5.54ZM425,204.34a3.21,3.21,0,0,1-5-3.89c4.15-7.81,8.66-15.55,13.41-23a3.21,3.21,0,1,1,5.41,3.45c-4.65,7.31-9.08,14.9-13.15,22.56A3.17,3.17,0,0,1,425,204.34ZM595.28,50.67a3.33,3.33,0,0,1-.94.59c-8,3.28-16,6.91-23.77,10.8a3.21,3.21,0,1,1-2.88-5.73c7.9-4,16-7.67,24.23-11a3.21,3.21,0,0,1,3.36,5.35Zm-61,32.51a3.51,3.51,0,0,1-.36.29c-7.19,4.83-14.28,10-21.09,15.4a3.21,3.21,0,0,1-4.51-.52,3.28,3.28,0,0,1,.52-4.51c6.94-5.49,14.17-10.77,21.5-15.7a3.21,3.21,0,0,1,3.94,5ZM463.52,147a3.21,3.21,0,0,1-4.61-4.44c5.66-6.79,11.66-13.43,17.84-19.75a3.21,3.21,0,1,1,4.59,4.48c-6.06,6.2-11.95,12.72-17.5,19.38A3.34,3.34,0,0,1,463.52,147Z"/><path class="cls-45" d="M965.56,129.24a3.22,3.22,0,0,1-4.47-.17c-2.91-3-5.93-6.06-9-9a3.22,3.22,0,0,1-.08-4.54,3.26,3.26,0,0,1,4.54-.08c3.09,3,6.16,6.08,9.13,9.17a3.21,3.21,0,0,1-.09,4.54Z"/><path class="cls-46" d="M1059.37,374.85a3.21,3.21,0,0,1-5.35-2.5c.16-4.24.23-8.51.22-12.7a3.21,3.21,0,1,1,6.42,0c0,4.26-.07,8.62-.23,12.94A3.19,3.19,0,0,1,1059.37,374.85Z"/><path class="cls-47" d="M948.52,612.81l-2.16,1.93a3.21,3.21,0,0,1-4.28-4.78l0,0,2.11-1.9c5.63-5.07,11.16-10.42,16.44-15.88a3.21,3.21,0,1,1,4.61,4.46C959.89,602.19,954.25,607.63,948.52,612.81Zm-35.35,27.85-.33.27c-7.17,4.91-14.63,9.61-22.16,14a3.21,3.21,0,1,1-3.21-5.55c7.39-4.28,14.71-8.89,21.74-13.71a3.21,3.21,0,0,1,4,5Zm79.27-76a3.21,3.21,0,0,1-4.72-4.31c5.12-6.84,10-14,14.59-21.15a3.21,3.21,0,1,1,5.42,3.43c-4.65,7.34-9.65,14.59-14.87,21.57A3.7,3.7,0,0,1,992.44,564.69ZM853.51,673.29a3.21,3.21,0,0,1-.9.57c-8,3.39-16.27,6.51-24.5,9.26a3.21,3.21,0,1,1-2-6.08c8.08-2.7,16.16-5.76,24-9.09a3.21,3.21,0,0,1,3.4,5.34Zm173.94-166.92a3.21,3.21,0,0,1-5.06-3.74c3.62-7.69,7-15.65,10-23.67a3.21,3.21,0,0,1,6,2.27c-3.09,8.17-6.53,16.29-10.21,24.12A3.37,3.37,0,0,1,1027.45,506.37Zm-238.92,187a3.18,3.18,0,0,1-1.52.76c-8.52,1.71-17.21,3.11-25.85,4.15a3.2,3.2,0,1,1-.77-6.36c8.47-1,17-2.4,25.36-4.08a3.21,3.21,0,0,1,2.78,5.53ZM1050,442.21a3.2,3.2,0,0,1-5.26-3.14c2-8.29,3.73-16.77,5.11-25.18a3.21,3.21,0,1,1,6.33,1c-1.4,8.58-3.16,17.22-5.21,25.67A3.17,3.17,0,0,1,1050,442.21ZM720.86,699.86a3.21,3.21,0,0,1-2.17.82c-8.67,0-17.47-.44-26.16-1.16a3.21,3.21,0,1,1,.53-6.39c8.52.71,17.16,1.09,25.67,1.14a3.21,3.21,0,0,1,3.19,3.22A3.26,3.26,0,0,1,720.86,699.86Zm-67.61-7.27a3.18,3.18,0,0,1-2.81.76c-6.69-1.41-13.44-3.05-20.07-4.86-1.79-.49-3.57-1-5.34-1.51a3.21,3.21,0,1,1,1.8-6.16q2.61.76,5.23,1.48c6.51,1.78,13.14,3.39,19.7,4.78a3.2,3.2,0,0,1,1.49,5.51ZM588.43,672a3.2,3.2,0,0,1-3.42.57c-8-3.45-15.94-7.26-23.63-11.31a3.21,3.21,0,0,1,3-5.68c7.55,4,15.35,7.71,23.18,11.1a3.19,3.19,0,0,1,1.67,4.21A3.08,3.08,0,0,1,588.43,672Zm-59.38-33.16a3.19,3.19,0,0,1-4,.24c-7.12-5-14.14-10.32-20.86-15.85a3.22,3.22,0,0,1-.44-4.52,3.25,3.25,0,0,1,4.52-.44c6.59,5.43,13.48,10.67,20.46,15.56a3.21,3.21,0,0,1,.78,4.47A3.09,3.09,0,0,1,529.05,638.84Z"/><path class="cls-48" d="M477.52,594.27a3.21,3.21,0,0,1-4.48-.18c-2.94-3.11-5.86-6.34-8.71-9.59a3.36,3.36,0,0,1,.31-4.53,3.21,3.21,0,0,1,4.52.31c2.79,3.19,5.67,6.35,8.54,9.4a3.21,3.21,0,0,1-.13,4.54Z"/><path class="cls-49" d="M505.61,505a4.05,4.05,0,0,0,4.19,2.11l48.65-7.54a214.65,214.65,0,0,0,53.47,44.36l1.6,49.18a4.05,4.05,0,0,0,2.85,3.73l56.42,17.43a4.05,4.05,0,0,0,4.46-1.48l29-39.71a214.18,214.18,0,0,0,69.18-6.48l35.92,33.66a4.06,4.06,0,0,0,4.66.63l52.21-27.58a4,4,0,0,0,2.11-4.19l-7.54-48.65A214.29,214.29,0,0,0,907.21,467l49.17-1.6a4.05,4.05,0,0,0,3.74-2.85l17.42-56.42a4,4,0,0,0-1.47-4.46l-39.71-29.05a214.46,214.46,0,0,0-6.49-69.18l33.67-35.92a4,4,0,0,0,.62-4.65l-27.57-52.22a4,4,0,0,0-4.2-2.11l-48.65,7.54a214.33,214.33,0,0,0-53.47-44.37l-1.59-49.17a4,4,0,0,0-2.85-3.73L769.4,101.38a4,4,0,0,0-4.45,1.48l-29.05,39.7a214.41,214.41,0,0,0-69.18,6.49L630.8,115.38a4,4,0,0,0-4.66-.62l-52.22,27.57a4.07,4.07,0,0,0-2.11,4.2l7.54,48.65A214.47,214.47,0,0,0,535,248.65l-49.18,1.6a4,4,0,0,0-3.73,2.85l-17.42,56.42a4,4,0,0,0,1.47,4.46l39.71,29a214.65,214.65,0,0,0,6.48,69.17l-33.66,35.93a4,4,0,0,0-.63,4.65Z"/><path class="cls-50" d="M759.45,400.33l0,0a57.25,57.25,0,1,1,18.86-39.54A56.89,56.89,0,0,1,759.41,400.36ZM689.2,322.46A47.62,47.62,0,0,0,753,393.21l0,0a47.62,47.62,0,0,0-63.77-70.75Z"/><path class="cls-50" d="M821,466.33a147.42,147.42,0,0,1-171.12,19.19l4.71-8.39a137.87,137.87,0,0,0,177.74-37.39l.19-.25.19-.26a137.75,137.75,0,0,0,11.21-146.37,139.07,139.07,0,0,0-19.67-28.18,136.81,136.81,0,0,0-61.45-39.08C690.25,203.2,613,244,590.61,316.52a137.46,137.46,0,0,0-2.22,73.3L579,392.11a147.21,147.21,0,0,1,2.37-78.44c24-77.59,106.61-121.23,184.22-97.26a146.41,146.41,0,0,1,65.75,41.81,148.11,148.11,0,0,1,21,30.15,147.19,147.19,0,0,1-31.42,178Z"/><path class="cls-51" d="M1049.35,450.73a2.4,2.4,0,0,1-1-1.26,2.49,2.49,0,0,1,1.57-3.16c3.18-1.07,6.45-2.06,9.69-2.92a2.49,2.49,0,0,1,1.28,4.82c-3.14.83-6.29,1.79-9.38,2.83A2.47,2.47,0,0,1,1049.35,450.73Z"/><path class="cls-52" d="M1248.17,641.5a2.5,2.5,0,0,1-1-2.76,153.61,153.61,0,0,0,4.39-20,2.49,2.49,0,1,1,4.93.73,158.43,158.43,0,0,1-4.53,20.7,2.49,2.49,0,0,1-3.09,1.7A2.43,2.43,0,0,1,1248.17,641.5Zm5.82-54.2a2.47,2.47,0,0,1-1.08-1.89,154,154,0,0,0-2.76-20.33,2.49,2.49,0,0,1,4.88-1,158.77,158.77,0,0,1,2.85,21,2.49,2.49,0,0,1-2.32,2.66A2.44,2.44,0,0,1,1254,587.3ZM1092.36,442.77a2.49,2.49,0,0,1,1.3-4.55c3.75-.16,7.57-.18,11.36-.07,3.28.09,6.58.29,9.82.59a2.49,2.49,0,1,1-.45,5c-3.14-.28-6.34-.47-9.51-.57-3.68-.1-7.38-.08-11,.07A2.52,2.52,0,0,1,1092.36,442.77Zm148.43,91.67a2.54,2.54,0,0,1-.87-1,152.48,152.48,0,0,0-9.64-18.11,2.49,2.49,0,1,1,4.23-2.63,157.29,157.29,0,0,1,10,18.7,2.49,2.49,0,0,1-3.68,3.08ZM1146.39,450a2.5,2.5,0,0,1,2.16-4.44,159,159,0,0,1,19.71,7.81,2.49,2.49,0,0,1-2.15,4.5,152.6,152.6,0,0,0-19.08-7.56A2.37,2.37,0,0,1,1146.39,450Zm63.71,39.41a3.79,3.79,0,0,1-.38-.32,154.86,154.86,0,0,0-15.29-13.69,2.49,2.49,0,0,1-.43-3.5,2.55,2.55,0,0,1,3.5-.43,160.09,160.09,0,0,1,15.79,14.13,2.5,2.5,0,0,1-3.19,3.81Z"/><path class="cls-53" d="M1230.05,681.45a2.49,2.49,0,0,1-.69-3.4c1.75-2.75,3.43-5.58,5-8.43a2.49,2.49,0,0,1,3.39-1,2.44,2.44,0,0,1,1,3.38c-1.62,2.94-3.36,5.87-5.17,8.71a2.5,2.5,0,0,1-3.45.76Z"/><path class="cls-54" d="M1126.26,751a2.43,2.43,0,0,1-1-1.62,2.49,2.49,0,0,1,2-2.89c3.21-.57,6.44-1.25,9.59-2a2.49,2.49,0,1,1,1.19,4.84c-3.26.8-6.6,1.5-9.91,2.09A2.45,2.45,0,0,1,1126.26,751Z"/><path class="cls-55" d="M1022.14,733a2.49,2.49,0,0,1,2.64-4.22,152.75,152.75,0,0,0,18.16,8.81,2.49,2.49,0,0,1-1.87,4.62,158.25,158.25,0,0,1-18.76-9.1Zm-27-19.49a1.71,1.71,0,0,1-.26-.21,158.85,158.85,0,0,1-14.55-14.92,2.49,2.49,0,1,1,3.79-3.24,155,155,0,0,0,14.09,14.45,2.49,2.49,0,0,1-3.07,3.92Zm77.48,37.57a2.49,2.49,0,0,1,1.82-4.52,153.2,153.2,0,0,0,20.08,2.08,2.49,2.49,0,1,1-.19,5,157.79,157.79,0,0,1-20.73-2.15A2.43,2.43,0,0,1,1072.63,751.12ZM962,671.38a2.49,2.49,0,0,1-.79-.88,156.31,156.31,0,0,1-8.62-19,2.49,2.49,0,1,1,4.66-1.76,152.44,152.44,0,0,0,8.35,18.37,2.49,2.49,0,0,1-3.6,3.24Zm-16.79-50.91a2.54,2.54,0,0,1-1.06-1.7A158.3,158.3,0,0,1,942.56,598a2.49,2.49,0,0,1,5-.06,153.41,153.41,0,0,0,1.57,20.12,2.5,2.5,0,0,1-3.87,2.42Zm1.52-53.6a2.48,2.48,0,0,1-1-2.56,156.91,156.91,0,0,1,5.5-20.11,2.49,2.49,0,0,1,4.71,1.63,152.3,152.3,0,0,0-5.33,19.47,2.49,2.49,0,0,1-3.84,1.57Z"/><path class="cls-56" d="M966.46,516.87a2.49,2.49,0,0,1-.72-3.36c1.76-2.87,3.63-5.71,5.57-8.45a2.49,2.49,0,0,1,3.44-.63l0,0a2.5,2.5,0,0,1,.6,3.47c-1.87,2.66-3.69,5.41-5.39,8.19a2.5,2.5,0,0,1-3.43.82Z"/><path class="cls-57" d="M1012.24,515.48a1.86,1.86,0,0,0-.49,2.11l8.68,21a98.76,98.76,0,0,0-14.06,28.78l-21.85,6.07a1.86,1.86,0,0,0-1.36,1.68l-1.67,27.17a1.87,1.87,0,0,0,1.15,1.84l21,8.69A98.67,98.67,0,0,0,1014,643.07l-11.17,19.75a1.87,1.87,0,0,0,.23,2.16l18,20.39a1.89,1.89,0,0,0,2.11.49l21-8.68A99.14,99.14,0,0,0,1073,691.24l6.07,21.85a1.87,1.87,0,0,0,1.68,1.36l27.18,1.67a1.85,1.85,0,0,0,1.83-1.15l8.69-21a98.93,98.93,0,0,0,30.28-10.43l19.76,11.17a1.86,1.86,0,0,0,2.15-.23l20.39-18a1.87,1.87,0,0,0,.49-2.11l-8.67-21a98.62,98.62,0,0,0,14-28.78l21.86-6.06a1.88,1.88,0,0,0,1.36-1.69l1.66-27.17a1.85,1.85,0,0,0-1.14-1.83l-20.95-8.69a98.92,98.92,0,0,0-10.44-30.29l11.17-19.75a1.87,1.87,0,0,0-.22-2.15l-18-20.39a1.85,1.85,0,0,0-2.11-.49l-21,8.67a98.74,98.74,0,0,0-28.78-14l-6.07-21.86a1.87,1.87,0,0,0-1.68-1.36l-27.17-1.66a1.87,1.87,0,0,0-1.84,1.14L1084.82,498a98.93,98.93,0,0,0-30.28,10.43l-19.76-11.16a1.86,1.86,0,0,0-2.15.22Z"/><path class="cls-50" d="M1085.9,619.05l0,0a27.92,27.92,0,1,1,20.9,4.38A27.69,27.69,0,0,1,1085.88,619Zm27.23-39.94a20.43,20.43,0,0,0-23,33.75h0a20.43,20.43,0,1,0,23-33.76Z"/><path class="cls-50" d="M1063,653.8a69.5,69.5,0,0,1-28.27-74.61c.14-.54.28-1.08.43-1.62l7.2,2a62.41,62.41,0,0,0-2.19,13h0a61.94,61.94,0,0,0,.78,14.33v0a.2.2,0,0,0,0,.07,62.14,62.14,0,0,0,36.47,46.22,61.34,61.34,0,0,0,15.67,4.43l.53.08.43.05,1.11.14c1,.11,2,.2,3,.26a61.56,61.56,0,0,0,44.83-15.43,62.62,62.62,0,0,0,10.23-11.59,62,62,0,0,0-79.76-89.83l-3.45-6.64A69.44,69.44,0,1,1,1063,653.8Z"/><path class="cls-2" d="M1449,226.54a2.45,2.45,0,0,1-1.16-2c-.15-3.23-.37-6.46-.66-9.62a2.43,2.43,0,0,1,4.85-.43c.29,3.22.52,6.52.67,9.82a2.42,2.42,0,0,1-2.31,2.54A2.35,2.35,0,0,1,1449,226.54Z"/><path class="cls-2" d="M1094.5,436.33c-4.85-3-9.65-6.14-14.25-9.45a2.43,2.43,0,0,1,2.84-3.95c5.3,3.8,10.84,7.41,16.47,10.77h0a2.44,2.44,0,0,1-2.52,4.17Zm31.39,16.06a2.43,2.43,0,0,1,2.21-4.32c6,2.52,12.23,4.81,18.46,6.82a2.44,2.44,0,0,1-1.5,4.64c-6.35-2.06-12.69-4.4-18.84-7A2.55,2.55,0,0,1,1125.89,452.39Zm50,14.68a2.43,2.43,0,0,1,1.69-4.47c6.45,1.14,13,2,19.5,2.6a2.43,2.43,0,1,1-.44,4.85c-6.63-.6-13.32-1.5-19.91-2.66A2.26,2.26,0,0,1,1175.88,467.07Zm52,3.28a2.44,2.44,0,0,1,1.15-4.52c6.51-.32,13.1-.93,19.58-1.82a2.44,2.44,0,0,1,.66,4.83c-6.62.9-13.35,1.53-20,1.86A2.51,2.51,0,0,1,1227.86,470.35Zm51.39-8.43a2.39,2.39,0,0,1-1.07-1.42,2.42,2.42,0,0,1,1.68-3c6.28-1.77,12.56-3.84,18.68-6.14a2.44,2.44,0,0,1,1.72,4.56c-6.25,2.35-12.67,4.46-19.08,6.27A2.44,2.44,0,0,1,1279.25,461.92Zm48.24-19.64a2.44,2.44,0,0,1,.11-4.22c5.75-3.12,11.42-6.53,16.87-10.12a2.44,2.44,0,0,1,2.68,4.07c-5.56,3.66-11.35,7.14-17.22,10.33A2.44,2.44,0,0,1,1327.49,442.28Zm42.72-29.82a2.74,2.74,0,0,1-.56-.47,2.44,2.44,0,0,1,.22-3.44c4.91-4.31,9.69-8.89,14.21-13.61a2.44,2.44,0,0,1,3.52,3.37c-4.62,4.82-9.5,9.49-14.51,13.9A2.44,2.44,0,0,1,1370.21,412.46Zm35-38.57-.16-.1a2.44,2.44,0,0,1-.55-3.4c3.38-4.68,6.62-9.55,9.62-14.46.4-.65.8-1.31,1.19-2a2.44,2.44,0,0,1,3.34-.85l0,0a2.44,2.44,0,0,1,.82,3.32l-1.22,2c-3.07,5-6.38,10-9.83,14.77A2.43,2.43,0,0,1,1405.25,373.89Zm25.52-45.41a2.44,2.44,0,0,1-1-3c2.54-6,4.85-12.22,6.88-18.44a2.43,2.43,0,1,1,4.63,1.5c-2.07,6.36-4.43,12.7-7,18.83a2.44,2.44,0,0,1-3.19,1.3A2.55,2.55,0,0,1,1430.77,328.48Zm14.83-50a2.42,2.42,0,0,1-1.13-2.5c1.16-6.45,2-13,2.65-19.5a2.44,2.44,0,1,1,4.85.45c-.61,6.63-1.52,13.32-2.7,19.91a2.44,2.44,0,0,1-2.83,2A2.19,2.19,0,0,1,1445.6,278.52Z"/><path class="cls-2" d="M1055.45,406.29a2.53,2.53,0,0,1-.42-.31c-2.39-2.29-4.73-4.62-7-6.94a2.44,2.44,0,1,1,3.51-3.38c2.19,2.27,4.49,4.56,6.83,6.79a2.43,2.43,0,0,1-3,3.84Z"/><path class="cls-2" d="M983.15,238.64a2.45,2.45,0,0,1-1.16-2.07c0-3.25,0-6.56.16-9.84a2.44,2.44,0,0,1,4.87.18c-.12,3.22-.18,6.46-.16,9.64a2.43,2.43,0,0,1-2.43,2.44A2.53,2.53,0,0,1,983.15,238.64Z"/><path class="cls-2" d="M986.7,197.3a2.44,2.44,0,0,1-1.13-2.5c1.14-6.45,2.57-12.94,4.25-19.31a2.44,2.44,0,0,1,4.71,1.25c-1.65,6.23-3,12.59-4.16,18.91a2.44,2.44,0,0,1-2.82,2A2.24,2.24,0,0,1,986.7,197.3Zm14.35-49.22a2.44,2.44,0,0,1-1-3c2.52-6.07,5.32-12.11,8.33-17.93a2.44,2.44,0,0,1,4.33,2.24c-3,5.7-5.69,11.61-8.16,17.56a2.43,2.43,0,0,1-3.18,1.31Zm24.75-44.9-.14-.09a2.44,2.44,0,0,1-.58-3.4c3.78-5.35,7.84-10.62,12.07-15.65a2.44,2.44,0,0,1,3.73,3.14c-4.14,4.92-8.12,10.08-11.82,15.32A2.44,2.44,0,0,1,1025.8,103.18Zm34-38.36a2.48,2.48,0,0,1-.53-.45,2.42,2.42,0,0,1,.17-3.43c4.87-4.4,10-8.65,15.21-12.63a2.43,2.43,0,0,1,2.95,3.87c-5.12,3.9-10.13,8.06-14.89,12.37A2.45,2.45,0,0,1,1059.81,64.82Zm41.57-30a2.37,2.37,0,0,1-.84-.88,2.44,2.44,0,0,1,.92-3.32c5.71-3.23,11.62-6.26,17.58-9a2.43,2.43,0,0,1,2,4.42c-5.84,2.69-11.63,5.66-17.22,8.83A2.44,2.44,0,0,1,1101.38,34.83Zm47.1-20.23a2.44,2.44,0,0,1,.56-4.41c6.28-1.91,12.72-3.58,19.13-5a2.43,2.43,0,0,1,1,4.76c-6.27,1.35-12.58,3-18.73,4.86A2.43,2.43,0,0,1,1148.48,14.6Zm50.36-9.44a2.44,2.44,0,0,1,1.09-4.51c6.55-.49,13.19-.7,19.75-.64a2.44,2.44,0,0,1,0,4.87c-6.42-.06-12.93.15-19.34.63A2.4,2.4,0,0,1,1198.84,5.16ZM1250.06,7a2.43,2.43,0,0,1,1.62-4.48c6.47,1,13,2.2,19.41,3.7A2.43,2.43,0,1,1,1270,11c-6.28-1.47-12.67-2.69-19-3.63A2.37,2.37,0,0,1,1250.06,7Zm49.58,13a2.44,2.44,0,0,1,2.15-4.35c6.15,2.36,12.26,5,18.15,7.83a2.44,2.44,0,1,1-2.12,4.39c-5.77-2.78-11.75-5.36-17.77-7.67A2,2,0,0,1,1299.64,20Zm61.41,35a2.27,2.27,0,0,1-.25-.18c-5-4-10.31-7.83-15.65-11.38a2.45,2.45,0,0,1-.69-3.38,2.42,2.42,0,0,1,3.38-.68c5.46,3.63,10.84,7.54,16,11.63a2.44,2.44,0,0,1-2.78,4Z"/><path class="cls-2" d="M1391.18,83.67a2.46,2.46,0,0,1-.56-.47c-2.12-2.42-4.31-4.81-6.5-7.1a2.44,2.44,0,0,1,3.52-3.37c2.23,2.34,4.47,4.78,6.64,7.26a2.43,2.43,0,0,1-3.1,3.68Z"/><path class="cls-30" d="M1365.71,135.16a2.8,2.8,0,0,0-2.9-1.45l-33.63,5.3a148.14,148.14,0,0,0-37-30.59l-1.18-34a2.79,2.79,0,0,0-2-2.57l-39-12a2.79,2.79,0,0,0-3.08,1l-20,27.5A148.42,148.42,0,0,0,1179,93L1154.14,69.8a2.82,2.82,0,0,0-3.22-.43l-36.06,19.15a2.82,2.82,0,0,0-1.45,2.91l5.3,33.62a148.14,148.14,0,0,0-30.59,37l-34,1.19a2.78,2.78,0,0,0-2.57,2l-12,39a2.79,2.79,0,0,0,1,3.08l27.5,20a148.36,148.36,0,0,0,4.59,47.81l-23.21,24.89a2.82,2.82,0,0,0-.43,3.22l19.15,36.06a2.8,2.8,0,0,0,2.91,1.45l33.62-5.29a148.35,148.35,0,0,0,37,30.59l1.19,34a2.8,2.8,0,0,0,2,2.58l39,11.95a2.8,2.8,0,0,0,3.08-1l20-27.5a148.33,148.33,0,0,0,47.81-4.6l24.89,23.22a2.8,2.8,0,0,0,3.22.42L1319.07,386a2.79,2.79,0,0,0,1.45-2.9l-5.29-33.63a148.14,148.14,0,0,0,30.59-37l34-1.18a2.81,2.81,0,0,0,2.58-2l11.95-39a2.8,2.8,0,0,0-1-3.08l-27.5-20a148.42,148.42,0,0,0-4.6-47.82l23.22-24.89a2.8,2.8,0,0,0,.42-3.22Z"/><path class="cls-2" d="M1196.18,271.35a40,40,0,1,1,18.8,5.77A39.73,39.73,0,0,1,1196.18,271.35ZM1234,209.42a32.55,32.55,0,0,0-15.36-4.71h0a32.59,32.59,0,1,0,22.55,10.68A33,33,0,0,0,1234,209.42Zm-15.17-8.36h0Z"/><path class="cls-2" d="M1162.93,324.91a102.17,102.17,0,0,1,83.23-184.86c.82.25,1.63.51,2.44.78a103,103,0,0,1,15.81,6.79c.59.31,1.18.63,1.76,1L1262.6,155A96.34,96.34,0,0,0,1244,147l-.19-.05a94.82,94.82,0,1,0,64.52,68l7.09-1.76a102.21,102.21,0,0,1-152.51,111.66Z"/><path class="cls-58" d="M634.88,712.41l-22.83,22.51c-32.41-3.11-57.38-13.19-76.56-26C547,680.23,558.75,663.2,568,653.22,598.14,695.65,634.88,712.41,634.88,712.41Z"/><path class="cls-59" d="M476,628.17l53.88-84.24c3.54,47.51,19.59,83.23,38.12,109.29-9.22,10-20.94,27-32.48,55.72C487.61,677,476,628.17,476,628.17Z"/><path class="cls-60" d="M418.67,1294c26.86,1.23,52.86.46,70.22-.44-15.8-11.25-52.22-35.73-82.69-45.47l-20.92-1.25s-7.09,10.78-9.62,35.45C379.13,1286.59,389.26,1292.62,418.67,1294Z"/><path class="cls-61" d="M489.11,1293.7l-.22-.16c-17.36.9-43.36,1.67-70.22.44-29.41-1.36-39.54-7.39-43-11.71-.11,1.13-.23,2.26-.33,3.46a9.79,9.79,0,0,0,9,10.57c22,1.67,76.55,5.43,102.85,4A3.67,3.67,0,0,0,489.11,1293.7Z"/><path class="cls-62" d="M226.54,1286.79c-2-12.61-5.13-30.84-7.56-35.51-3.83-7.31-16.92,0-16.92,0s-9.18,4.29-13.41,11.43c-2.7,4.55-10.16,17.51-15.21,26.3a5.91,5.91,0,0,0-.79,3.13l52.41,1.84A10.49,10.49,0,0,0,226.54,1286.79Z"/><path class="cls-63" d="M172.65,1292.14a6,6,0,0,0,5.81,5.8l37.34,1a10.54,10.54,0,0,0,9.26-5Z"/><path class="cls-64" d="M230.54,1209.37c-.45,1.51-7.22,34.34-10.19,48.75a8.23,8.23,0,0,1-8.47,6.58c-2.21-.11-4.8-.31-7.5-.66a9.93,9.93,0,0,1-8.64-9.47c-.48-12.62-.72-36.86,3.92-46.25C206.05,1195.37,230.54,1209.37,230.54,1209.37Z"/><path class="cls-65" d="M381.17,1218.77c2.9-.09-1.16,15,3.23,29.83,1,3.34,3.5,6,7,6,2.26,0,4.94,0,7.66-.24a8.42,8.42,0,0,0,7.76-7.59l3.58-38.47Z"/><path class="cls-66" d="M462.42,809.83c-1.3,6.31-47.06,273.23-49.84,411.35a4.71,4.71,0,0,1-4,4.58c-5.81.81-17.13,1.85-28.1-.19a3.31,3.31,0,0,1-2.73-3c-1.6-25.74-14.46-243.36,1.29-345.8,0,0-130.11,273.85-149.84,349.36a4,4,0,0,1-4.06,3c-5.57-.29-17.16-1.3-26.36-4.68a6.9,6.9,0,0,1-4.35-8.1c11-45.19,88.25-356.54,140.69-425.13Z"/><path class="cls-67" d="M379,878.44a1.72,1.72,0,0,1-1.22-2.91l17.43-17.81a1.7,1.7,0,0,1,2.44,2.38l-17.42,17.82A1.74,1.74,0,0,1,379,878.44Z"/><path class="cls-68" d="M536.79,475.64c-33.42-8.75-95.07-22.46-144.15-19.54A22.21,22.21,0,0,0,371.7,477c-7.42,130.71-17.55,246.7-36.62,314.19,42.88,17,85.39,24.84,127.34,18.68q47.13-101,82.36-233.24s13.77-70.38.4-93.84C543.1,479.09,540.35,476.57,536.79,475.64Z"/><path class="cls-69" d="M456.4,384.08s-8.44,50.35-10.95,73.64a9.12,9.12,0,0,0,4.95,9.1c9.23,4.75,28.92,12.4,50.37,5.38a8.51,8.51,0,0,0,5.77-8.3l-1.47-67.21Z"/><path class="cls-70" d="M511.45,328.29s16.28,37.41,17.37,57,5.33,32.38-17.37,36.33-41.83-7.36-52.19-26.91c0,0-16.23-30.14-12.59-42.48S511.45,328.29,511.45,328.29Z"/><path class="cls-71" d="M467,380.69h2.87s-11.83-24.26-1.44-28.52,51.55-12.65,60.43-27.26c8.56-14.08.92-32.26-10.5-37.35a1.53,1.53,0,0,0-1.94.72l-1,1.79a1.54,1.54,0,0,1-2.84-.29h0a1.54,1.54,0,0,0-2.77-.43c-2.71,4.37-10.07,11.47-29.82,15.11-28,5.17-46.52,16.51-47,35.87a1.54,1.54,0,0,1-2.39,1.26c-2.06-1.26-5.37-1.85-9.8,1.87-7.69,6.47-4.54,23.24,12.32,37a1.55,1.55,0,0,1-.07,2.48c-3.06,2-7.62,6.72,4.19,13,12.08,6.46,19.23,5.75,21.92,5.06a1.53,1.53,0,0,0,1.17-1.59l-1.06-17.16a1.54,1.54,0,0,1,1.54-1.63Z"/><path class="cls-72" d="M467.72,384.27s-6.21-23.89-16.92-17.19,5.56,26.77,14.17,27.67Z"/><path class="cls-73" d="M120.1,773l-22,5.56C60.37,788.14,35,816.5,41.43,841.94l7.64,30.26c6.43,25.44,42.24,38.34,80,28.8l22-5.56q2.19-.56,4.35-1.2l644.87-193L783.6,635.38,124.5,772C123,772.34,121.56,772.67,120.1,773Zm9.47,30.19c28.42-7.18,54.91.68,59.18,17.57S173.44,857.19,145,864.37s-54.91-.68-59.17-17.56S101.16,810.42,129.57,803.23Z"/><path class="cls-74" d="M998,545.83,870.41,578.09a30.2,30.2,0,0,0-20.32,17.28L831,639.45a30.21,30.21,0,0,0,9,35.74l37.75,29.71a30.17,30.17,0,0,0,26.08,5.55l127.61-32.25c19.25-4.87,35.61,15.22,26.52,32.87-21.74,42.23-61.63,75.63-112.41,88.46-91.77,23.2-173-32.4-195.29-120.67s22.73-175.78,114.5-199c50.77-12.83,101.74-2.4,140.93,24.42C1022.11,515.52,1017.26,541,998,545.83Z"/><path class="cls-75" d="M1001.06,557.86,873.45,590.11a30.22,30.22,0,0,0-20.32,17.28L834,651.47a30.21,30.21,0,0,0,9,35.74l37.75,29.72a30.17,30.17,0,0,0,26.08,5.55l127.61-32.26c19.25-4.86,35.61,15.23,26.52,32.88-21.74,42.23-61.63,75.63-112.41,88.46-91.77,23.2-173-32.4-195.29-120.67s22.73-175.79,114.5-199c50.77-12.84,101.74-2.4,140.93,24.42C1025.15,527.54,1020.3,553,1001.06,557.86Z"/><path class="cls-76" d="M122.53,782.63l-22,5.56c-37.74,9.54-63.12,37.9-56.69,63.35l7.65,30.25c6.43,25.44,42.24,38.34,80,28.8l22-5.56c1.45-.37,2.9-.77,4.34-1.2l644.88-193L786,645,126.92,781.62C125.45,781.93,124,782.27,122.53,782.63Zm9.47,30.2c28.41-7.19,54.9.68,59.17,17.56s-15.3,36.39-43.72,43.57-54.9-.68-59.17-17.56S103.59,820,132,812.83Z"/><path class="cls-77" d="M285.21,649.73C268.68,696.1,278,745.82,278,745.82l-21.79,5.81s-28.14-33.48-21.7-107.77C254.61,640.8,273.44,645.51,285.21,649.73Z"/><path class="cls-78" d="M234.5,643.86c.72-8.35,1.86-17.19,3.55-26.59,14.72-81.92,119.75-144.95,144.47-158.75a3.38,3.38,0,0,1,5,3.08L384,573c-58.5,7.87-86.18,41.34-98.81,76.76C273.44,645.51,254.61,640.8,234.5,643.86Z"/><path class="cls-79" d="M680.84,753.27a14.14,14.14,0,0,0,9.13-7.9c3.34-7.49,7.11-19.5-.94-23.16-12-5.44-33.77,16.89-33.77,16.89l-10.64,17.25-9.74,4.74C643.8,763.54,661,759.45,680.84,753.27Z"/><path class="cls-80" d="M276.54,734.92h26.93S281.62,748,280.89,761.81s8.68,42.33,13.08,50.1c4.81,8.5-61-12.65-37.77-77Z"/><path class="cls-81" d="M1606.86,2055.13v23.09c0,5.91-3,10.79-7,11.32l-360.2,32.65a26,26,0,0,1-8-.16c-.69-.13-1.39-.28-2.08-.45l-251-47.31c-2.67-.69-4.63-4.18-4.63-8.23v-24.4l266.28-33,34.28-16.22,34.08,4.91,20.13-3.86,46,13.39Z"/><path class="cls-82" d="M1606.86,2055.13v23.09c0,5.91-3,10.79-7,11.32l-360.19,32.65a25.65,25.65,0,0,1-8-.17V1997.66l42.86-5.24,34.08,4.91,20.12-3.86,46,13.39Z"/><path class="cls-83" d="M1328.68,1993.47l-354.77,47.09,255.89,48.2a24.9,24.9,0,0,0,9.52.56l367.54-34.19Z"/><path class="cls-84" d="M1458.73,2036c0,16.9-53.17,30-126.57,33.44-18.53.86-38.34,1.09-58.89.62-101-2.33-182.2-21.12-182.2-41.93a5.74,5.74,0,0,1,.14-1.49h-.14l.42-1a6.73,6.73,0,0,1,.38-1l23.3-60.9,28.13-73.49,39.41-103,30.15-78.84,37.52-98c4.69-12.28,13.39-19.91,22.79-19.91a17,17,0,0,1,3.77.41c7.93,1.73,15,8.88,19.09,19.52l37.83,98.73,30.21,79.88,39.86,105.07v0l28.62,75.49v0l.46,0,23.83,61.35A9.87,9.87,0,0,1,1458.73,2036Z"/><path class="cls-42" d="M1433,1969.66c-23,7.69-59.77,13.22-103.79,15.28-17.74.84-36.51,1.11-56.06.73-67.88-1.29-126.72-10-158.05-21.9l28.17-73.5c33,7.42,78.88,12.41,129.93,13.18,16.51.25,32.6,0,47.92-.58,32.23-1.27,60.65-4.37,83-8.76l28.37,75.49v0Z"/><path class="cls-42" d="M1364.41,1789c-17.55,1.89-36.85,3.18-57.33,3.76-11,.33-22.27.44-33.81.32a786,786,0,0,1-90.56-5.83l30.15-78.85c18.88,1.49,39.2,2.34,60.41,2.46q11.24.07,22.12-.15c13.29-.25,26.17-.78,38.47-1.6Z"/></svg>